<mxfile host="app.diagrams.net" modified="2020-11-22T13:28:42.324Z" agent="5.0 (Macintosh; Intel Mac OS X 10_15_6) AppleWebKit/537.36 (KHTML, like Gecko) Chrome/86.0.4240.193 Safari/537.36" etag="P27X5_8tMlC_DKtdN-Xa" version="13.10.0" type="github">
  <diagram id="E1vnYg3_RRcJsozLRmDp" name="Page-1">
    <mxGraphModel dx="946" dy="538" grid="1" gridSize="10" guides="1" tooltips="1" connect="1" arrows="1" fold="1" page="1" pageScale="1" pageWidth="827" pageHeight="1169" math="0" shadow="0">
      <root>
        <mxCell id="0" />
        <mxCell id="1" parent="0" />
        <mxCell id="MlSBLdBNYMqanUmCm9iC-6" value="" style="edgeStyle=orthogonalEdgeStyle;rounded=0;orthogonalLoop=1;jettySize=auto;html=1;sketch=1;" edge="1" parent="1" source="MlSBLdBNYMqanUmCm9iC-1" target="MlSBLdBNYMqanUmCm9iC-3">
          <mxGeometry relative="1" as="geometry" />
        </mxCell>
        <mxCell id="MlSBLdBNYMqanUmCm9iC-1" value="&lt;pre&gt;&lt;font style=&quot;font-size: 14px&quot;&gt;ProtocolListenerWrapper&lt;/font&gt;&lt;/pre&gt;" style="rounded=1;whiteSpace=wrap;html=1;fillColor=#dae8fc;strokeColor=#6c8ebf;sketch=1;" vertex="1" parent="1">
          <mxGeometry x="40" y="220" width="220" height="60" as="geometry" />
        </mxCell>
        <mxCell id="MlSBLdBNYMqanUmCm9iC-7" value="" style="edgeStyle=orthogonalEdgeStyle;rounded=0;orthogonalLoop=1;jettySize=auto;html=1;sketch=1;" edge="1" parent="1" source="MlSBLdBNYMqanUmCm9iC-3" target="MlSBLdBNYMqanUmCm9iC-4">
          <mxGeometry relative="1" as="geometry" />
        </mxCell>
        <mxCell id="MlSBLdBNYMqanUmCm9iC-3" value="&lt;pre&gt;&lt;pre&gt;&lt;font style=&quot;font-size: 14px&quot;&gt;ProtocolFilterWrapper&lt;/font&gt;&lt;/pre&gt;&lt;/pre&gt;" style="rounded=1;whiteSpace=wrap;html=1;fillColor=#ffe6cc;strokeColor=#d79b00;sketch=1;" vertex="1" parent="1">
          <mxGeometry x="290" y="220" width="220" height="60" as="geometry" />
        </mxCell>
        <mxCell id="MlSBLdBNYMqanUmCm9iC-8" value="" style="edgeStyle=orthogonalEdgeStyle;rounded=0;orthogonalLoop=1;jettySize=auto;html=1;sketch=1;" edge="1" parent="1" source="MlSBLdBNYMqanUmCm9iC-4" target="MlSBLdBNYMqanUmCm9iC-5">
          <mxGeometry relative="1" as="geometry" />
        </mxCell>
        <mxCell id="MlSBLdBNYMqanUmCm9iC-4" value="&lt;pre&gt;&lt;pre&gt;&lt;font style=&quot;font-size: 14px&quot;&gt;QosProtocolWrapper&lt;/font&gt;&lt;/pre&gt;&lt;/pre&gt;" style="rounded=1;whiteSpace=wrap;html=1;fillColor=#fff2cc;strokeColor=#d6b656;sketch=1;" vertex="1" parent="1">
          <mxGeometry x="540" y="220" width="220" height="60" as="geometry" />
        </mxCell>
        <mxCell id="MlSBLdBNYMqanUmCm9iC-5" value="&lt;pre&gt;&lt;span style=&quot;font-size: 14px&quot;&gt;XxxProtocol&lt;/span&gt;&lt;/pre&gt;" style="rounded=1;whiteSpace=wrap;html=1;fillColor=#f8cecc;strokeColor=#b85450;sketch=1;" vertex="1" parent="1">
          <mxGeometry x="790" y="220" width="220" height="60" as="geometry" />
        </mxCell>
        <mxCell id="MlSBLdBNYMqanUmCm9iC-9" value="根据协议构造具体的Protocol&lt;br&gt;例如DubboProtocol，HttpProtocol" style="text;html=1;strokeColor=none;fillColor=none;align=center;verticalAlign=middle;whiteSpace=wrap;rounded=0;" vertex="1" parent="1">
          <mxGeometry x="775" y="150" width="250" height="40" as="geometry" />
        </mxCell>
      </root>
    </mxGraphModel>
  </diagram>
</mxfile>
